<mxfile host="app.diagrams.net" modified="2021-08-17T06:30:08.118Z" agent="5.0 (Windows NT 10.0; Win64; x64) AppleWebKit/537.36 (KHTML, like Gecko) Chrome/94.0.4596.0 Safari/537.36 Edg/94.0.982.0" etag="Cqji37jb3qtq4Qu1ZgxA" version="14.9.7" type="github">
  <diagram id="4R-46xIgEgTI7ocYZc4J" name="Identity Federation and Delegation">
    <mxGraphModel dx="1422" dy="874" grid="1" gridSize="10" guides="1" tooltips="1" connect="1" arrows="1" fold="1" page="1" pageScale="1" pageWidth="850" pageHeight="1100" math="0" shadow="0">
      <root>
        <mxCell id="EUiOyMdvjXQLsPviINyw-0" />
        <mxCell id="EUiOyMdvjXQLsPviINyw-1" parent="EUiOyMdvjXQLsPviINyw-0" />
        <mxCell id="EUiOyMdvjXQLsPviINyw-2" style="edgeStyle=orthogonalEdgeStyle;rounded=0;orthogonalLoop=1;jettySize=auto;html=1;startArrow=none;startFill=0;endArrow=classic;endFill=1;startSize=8;endSize=8;strokeWidth=3;strokeColor=#9933FF;" edge="1" parent="EUiOyMdvjXQLsPviINyw-1" source="EUiOyMdvjXQLsPviINyw-3" target="EUiOyMdvjXQLsPviINyw-7">
          <mxGeometry relative="1" as="geometry" />
        </mxCell>
        <mxCell id="EUiOyMdvjXQLsPviINyw-3" value="Azure AD&lt;br&gt;(secninjas.eu)" style="aspect=fixed;html=1;points=[];align=center;image;fontSize=12;image=img/lib/azure2/identity/Azure_Active_Directory.svg;" vertex="1" parent="EUiOyMdvjXQLsPviINyw-1">
          <mxGeometry x="280" y="216" width="113.75" height="104" as="geometry" />
        </mxCell>
        <mxCell id="EUiOyMdvjXQLsPviINyw-4" value="" style="aspect=fixed;html=1;points=[];align=center;image;fontSize=12;image=img/lib/azure2/identity/Users.svg;" vertex="1" parent="EUiOyMdvjXQLsPviINyw-1">
          <mxGeometry x="70" y="650" width="45.71" height="50" as="geometry" />
        </mxCell>
        <mxCell id="EUiOyMdvjXQLsPviINyw-5" style="edgeStyle=orthogonalEdgeStyle;rounded=0;orthogonalLoop=1;jettySize=auto;html=1;entryX=0;entryY=0.5;entryDx=0;entryDy=0;startArrow=none;startFill=0;endArrow=classic;endFill=1;startSize=8;endSize=8;strokeWidth=3;strokeColor=#9933FF;" edge="1" parent="EUiOyMdvjXQLsPviINyw-1" source="EUiOyMdvjXQLsPviINyw-7" target="EUiOyMdvjXQLsPviINyw-18">
          <mxGeometry relative="1" as="geometry" />
        </mxCell>
        <mxCell id="EUiOyMdvjXQLsPviINyw-6" value="Delegation&lt;br&gt;for Security Principals&lt;br&gt;from foreign Azure AD" style="edgeLabel;html=1;align=center;verticalAlign=middle;resizable=0;points=[];" vertex="1" connectable="0" parent="EUiOyMdvjXQLsPviINyw-5">
          <mxGeometry x="0.6249" y="-3" relative="1" as="geometry">
            <mxPoint y="-111" as="offset" />
          </mxGeometry>
        </mxCell>
        <mxCell id="EUiOyMdvjXQLsPviINyw-7" value="Azure Lighthouse" style="aspect=fixed;html=1;points=[];align=center;image;fontSize=12;image=img/lib/azure2/management_governance/Azure_Lighthouse.svg;" vertex="1" parent="EUiOyMdvjXQLsPviINyw-1">
          <mxGeometry x="490" y="310" width="59" height="68" as="geometry" />
        </mxCell>
        <mxCell id="EUiOyMdvjXQLsPviINyw-8" value="" style="aspect=fixed;html=1;points=[];align=center;image;fontSize=12;image=img/lib/azure2/compute/App_Services.svg;" vertex="1" parent="EUiOyMdvjXQLsPviINyw-1">
          <mxGeometry x="70" y="346" width="64" height="64" as="geometry" />
        </mxCell>
        <mxCell id="EUiOyMdvjXQLsPviINyw-9" value="Azure AD&lt;br&gt;(IDHERO.DE)" style="aspect=fixed;html=1;points=[];align=center;image;fontSize=12;image=img/lib/azure2/identity/Azure_Active_Directory.svg;" vertex="1" parent="EUiOyMdvjXQLsPviINyw-1">
          <mxGeometry x="630" y="200" width="102.81" height="94" as="geometry" />
        </mxCell>
        <mxCell id="EUiOyMdvjXQLsPviINyw-10" value="Active Directory&lt;br&gt;Domain Services" style="aspect=fixed;html=1;points=[];align=center;image;fontSize=12;image=img/lib/azure2/compute/Virtual_Machine.svg;" vertex="1" parent="EUiOyMdvjXQLsPviINyw-1">
          <mxGeometry x="130" y="560" width="69" height="64" as="geometry" />
        </mxCell>
        <mxCell id="EUiOyMdvjXQLsPviINyw-11" value="" style="endArrow=classic;startArrow=classic;html=1;exitX=0.938;exitY=0.094;exitDx=0;exitDy=0;exitPerimeter=0;entryX=0;entryY=0.635;entryDx=0;entryDy=0;entryPerimeter=0;endSize=8;startSize=8;strokeWidth=3;strokeColor=#00CCCC;" edge="1" parent="EUiOyMdvjXQLsPviINyw-1" source="EUiOyMdvjXQLsPviINyw-8" target="EUiOyMdvjXQLsPviINyw-3">
          <mxGeometry width="50" height="50" relative="1" as="geometry">
            <mxPoint x="90" y="362" as="sourcePoint" />
            <mxPoint x="140" y="312" as="targetPoint" />
            <Array as="points" />
          </mxGeometry>
        </mxCell>
        <mxCell id="EUiOyMdvjXQLsPviINyw-12" value="SAML Federation" style="edgeLabel;html=1;align=center;verticalAlign=middle;resizable=0;points=[];" vertex="1" connectable="0" parent="EUiOyMdvjXQLsPviINyw-11">
          <mxGeometry x="-0.2694" y="-3" relative="1" as="geometry">
            <mxPoint as="offset" />
          </mxGeometry>
        </mxCell>
        <mxCell id="EUiOyMdvjXQLsPviINyw-13" value="" style="endArrow=classic;startArrow=classic;html=1;exitX=0.609;exitY=1.016;exitDx=0;exitDy=0;exitPerimeter=0;entryX=0.159;entryY=-0.016;entryDx=0;entryDy=0;entryPerimeter=0;endSize=8;startSize=8;strokeWidth=3;strokeColor=#FFB570;" edge="1" parent="EUiOyMdvjXQLsPviINyw-1" source="EUiOyMdvjXQLsPviINyw-8" target="EUiOyMdvjXQLsPviINyw-10">
          <mxGeometry width="50" height="50" relative="1" as="geometry">
            <mxPoint x="130.00199999999992" y="462.9860000000001" as="sourcePoint" />
            <mxPoint x="269.97" y="389.99609999999984" as="targetPoint" />
            <Array as="points" />
          </mxGeometry>
        </mxCell>
        <mxCell id="EUiOyMdvjXQLsPviINyw-14" value="LDAP Federation" style="edgeLabel;html=1;align=center;verticalAlign=middle;resizable=0;points=[];" vertex="1" connectable="0" parent="EUiOyMdvjXQLsPviINyw-13">
          <mxGeometry x="-0.2593" y="-1" relative="1" as="geometry">
            <mxPoint as="offset" />
          </mxGeometry>
        </mxCell>
        <mxCell id="EUiOyMdvjXQLsPviINyw-15" value="" style="endArrow=classic;startArrow=none;html=1;exitX=0.652;exitY=-0.047;exitDx=0;exitDy=0;exitPerimeter=0;endSize=8;startSize=8;strokeWidth=3;endFill=1;startFill=0;strokeColor=#3399FF;" edge="1" parent="EUiOyMdvjXQLsPviINyw-1" source="EUiOyMdvjXQLsPviINyw-10" target="EUiOyMdvjXQLsPviINyw-3">
          <mxGeometry width="50" height="50" relative="1" as="geometry">
            <mxPoint x="150.03199999999993" y="372.0160000000001" as="sourcePoint" />
            <mxPoint x="290" y="299.0260999999998" as="targetPoint" />
            <Array as="points" />
          </mxGeometry>
        </mxCell>
        <mxCell id="EUiOyMdvjXQLsPviINyw-16" value="Azure AD Connect&lt;br&gt;sync users / groups&lt;br&gt;to single Azure AD" style="edgeLabel;html=1;align=center;verticalAlign=middle;resizable=0;points=[];" vertex="1" connectable="0" parent="EUiOyMdvjXQLsPviINyw-15">
          <mxGeometry x="0.3917" y="-2" relative="1" as="geometry">
            <mxPoint x="-19" y="17" as="offset" />
          </mxGeometry>
        </mxCell>
        <mxCell id="EUiOyMdvjXQLsPviINyw-17" value="" style="group" vertex="1" connectable="0" parent="EUiOyMdvjXQLsPviINyw-1">
          <mxGeometry x="620" y="495" width="160" height="110" as="geometry" />
        </mxCell>
        <mxCell id="EUiOyMdvjXQLsPviINyw-18" value="Azure Subscription" style="shape=document;whiteSpace=wrap;html=1;boundedLbl=1;strokeColor=#d6b656;fillColor=none;strokeWidth=3;" vertex="1" parent="EUiOyMdvjXQLsPviINyw-17">
          <mxGeometry x="26.666666666666664" y="18.333333333333332" width="106.66666666666666" height="73.33333333333333" as="geometry" />
        </mxCell>
        <mxCell id="EUiOyMdvjXQLsPviINyw-19" value="" style="shape=curlyBracket;whiteSpace=wrap;html=1;rounded=1;strokeColor=#d6b656;fillColor=none;strokeWidth=3;" vertex="1" parent="EUiOyMdvjXQLsPviINyw-17">
          <mxGeometry width="17.77777777777778" height="110" as="geometry" />
        </mxCell>
        <mxCell id="EUiOyMdvjXQLsPviINyw-20" value="" style="shape=curlyBracket;whiteSpace=wrap;html=1;rounded=1;flipH=1;strokeColor=#d6b656;fillColor=none;strokeWidth=3;" vertex="1" parent="EUiOyMdvjXQLsPviINyw-17">
          <mxGeometry x="142.22222222222223" width="17.77777777777778" height="110" as="geometry" />
        </mxCell>
        <mxCell id="EUiOyMdvjXQLsPviINyw-21" value="" style="group" vertex="1" connectable="0" parent="EUiOyMdvjXQLsPviINyw-1">
          <mxGeometry x="265" y="514" width="160" height="110" as="geometry" />
        </mxCell>
        <mxCell id="EUiOyMdvjXQLsPviINyw-22" value="Azure Subscription" style="shape=document;whiteSpace=wrap;html=1;boundedLbl=1;strokeColor=#d6b656;fillColor=none;strokeWidth=3;" vertex="1" parent="EUiOyMdvjXQLsPviINyw-21">
          <mxGeometry x="26.666666666666664" y="18.333333333333332" width="106.66666666666666" height="73.33333333333333" as="geometry" />
        </mxCell>
        <mxCell id="EUiOyMdvjXQLsPviINyw-23" value="" style="shape=curlyBracket;whiteSpace=wrap;html=1;rounded=1;strokeColor=#d6b656;fillColor=none;strokeWidth=3;" vertex="1" parent="EUiOyMdvjXQLsPviINyw-21">
          <mxGeometry width="17.77777777777778" height="110" as="geometry" />
        </mxCell>
        <mxCell id="EUiOyMdvjXQLsPviINyw-24" value="" style="shape=curlyBracket;whiteSpace=wrap;html=1;rounded=1;flipH=1;strokeColor=#d6b656;fillColor=none;strokeWidth=3;" vertex="1" parent="EUiOyMdvjXQLsPviINyw-21">
          <mxGeometry x="142.22222222222223" width="17.77777777777778" height="110" as="geometry" />
        </mxCell>
        <mxCell id="EUiOyMdvjXQLsPviINyw-25" style="edgeStyle=orthogonalEdgeStyle;rounded=0;orthogonalLoop=1;jettySize=auto;html=1;entryX=0.914;entryY=0.968;entryDx=0;entryDy=0;entryPerimeter=0;startArrow=none;startFill=0;endArrow=classic;endFill=1;startSize=8;endSize=8;strokeWidth=3;strokeColor=#D6B656;" edge="1" parent="EUiOyMdvjXQLsPviINyw-1" source="EUiOyMdvjXQLsPviINyw-18" target="EUiOyMdvjXQLsPviINyw-9">
          <mxGeometry relative="1" as="geometry" />
        </mxCell>
        <mxCell id="EUiOyMdvjXQLsPviINyw-26" value="Implicit Trust&lt;br&gt;Azure Subscription&lt;br&gt;to Azure AD" style="edgeLabel;html=1;align=center;verticalAlign=middle;resizable=0;points=[];" vertex="1" connectable="0" parent="EUiOyMdvjXQLsPviINyw-25">
          <mxGeometry x="-0.226" y="1" relative="1" as="geometry">
            <mxPoint as="offset" />
          </mxGeometry>
        </mxCell>
        <mxCell id="EUiOyMdvjXQLsPviINyw-27" style="edgeStyle=orthogonalEdgeStyle;rounded=0;orthogonalLoop=1;jettySize=auto;html=1;entryX=0.844;entryY=1.067;entryDx=0;entryDy=0;entryPerimeter=0;startArrow=none;startFill=0;endArrow=classic;endFill=1;startSize=8;endSize=8;strokeWidth=3;exitX=0.378;exitY=-0.045;exitDx=0;exitDy=0;exitPerimeter=0;strokeColor=#D6B656;" edge="1" parent="EUiOyMdvjXQLsPviINyw-1" source="EUiOyMdvjXQLsPviINyw-22" target="EUiOyMdvjXQLsPviINyw-3">
          <mxGeometry relative="1" as="geometry">
            <mxPoint x="380" y="410.0033333333335" as="sourcePoint" />
            <mxPoint x="403.9683399999999" y="187.66199999999998" as="targetPoint" />
          </mxGeometry>
        </mxCell>
        <mxCell id="EUiOyMdvjXQLsPviINyw-28" value="Implicit Trust&lt;br&gt;Azure Subscription&lt;br&gt;to Azure AD" style="edgeLabel;html=1;align=center;verticalAlign=middle;resizable=0;points=[];" vertex="1" connectable="0" parent="EUiOyMdvjXQLsPviINyw-27">
          <mxGeometry x="-0.226" y="1" relative="1" as="geometry">
            <mxPoint x="6" y="36" as="offset" />
          </mxGeometry>
        </mxCell>
      </root>
    </mxGraphModel>
  </diagram>
</mxfile>
